# xmcd CD database file
#
# Track frame offsets:
#	150
#	19664
#	41303
#	83758
#
# Disc length: 1620 seconds
#
# Revision: 0
# Processed by: cddbd v1.5.1PL0 Copyright (c) Steve Scherf et al.
# Submitted via: CDex 1.51
#
DISCID=1f065204
DTITLE=古謝美佐子 - 壮快 11月号付録
DYEAR=2005
DGENRE=JPop
TTITLE0=童神-天の子守唄-
TTITLE1=家路
TTITLE2=黄金ん子-お休みバージョン-
TTITLE3=黄金ん子-お休みイントゥルメンタル-
EXTD=YEAR: 2005
EXTT0=
EXTT1=
EXTT2=
EXTT3=
PLAYORDER=
